<mxfile host="app.diagrams.net" modified="2023-08-07T10:02:26.802Z" agent="Mozilla/5.0 (Windows NT 10.0; Win64; x64) AppleWebKit/537.36 (KHTML, like Gecko) Chrome/115.0.0.0 Safari/537.36" etag="MDe5h--8LPLqQEDTe-G_" version="21.6.3" type="github">
  <diagram name="Page-1" id="9361dd3d-8414-5efd-6122-117bd74ce7a7">
    <mxGraphModel dx="1434" dy="768" grid="0" gridSize="10" guides="1" tooltips="1" connect="1" arrows="1" fold="1" page="0" pageScale="1.5" pageWidth="826" pageHeight="1169" background="none" math="0" shadow="0">
      <root>
        <mxCell id="0" />
        <mxCell id="1" parent="0" />
        <mxCell id="2" value="" style="fillColor=#CC4125;strokeColor=#660000" parent="1" vertex="1">
          <mxGeometry x="200" y="150" width="10" height="364" as="geometry" />
        </mxCell>
        <mxCell id="3" value="触发广告位" style="edgeStyle=none;verticalLabelPosition=top;verticalAlign=bottom;labelPosition=left;align=right" parent="1" edge="1">
          <mxGeometry x="110" y="49.5" width="100" height="100" as="geometry">
            <mxPoint x="110" y="149.5" as="sourcePoint" />
            <mxPoint x="200" y="149.5" as="targetPoint" />
          </mxGeometry>
        </mxCell>
        <mxCell id="4" value="SDK" style="shadow=1;fillColor=#A2C4C9;strokeColor=none" parent="1" vertex="1">
          <mxGeometry x="152.5" y="60" width="105" height="50" as="geometry" />
        </mxCell>
        <mxCell id="6" value="" style="fillColor=#CC4125;strokeColor=#660000" parent="1" vertex="1">
          <mxGeometry x="342.5" y="140" width="10" height="320" as="geometry" />
        </mxCell>
        <mxCell id="7" value="ADX" style="shadow=1;fillColor=#A2C4C9;strokeColor=none" parent="1" vertex="1">
          <mxGeometry x="295" y="60" width="105" height="50" as="geometry" />
        </mxCell>
        <mxCell id="8" value="" style="edgeStyle=none;endArrow=none;dashed=1" parent="1" source="7" target="6" edge="1">
          <mxGeometry x="272.3350694444445" y="165" width="100" height="100" as="geometry">
            <mxPoint x="347.2588734567901" y="110" as="sourcePoint" />
            <mxPoint x="347.5761959876544" y="165" as="targetPoint" />
          </mxGeometry>
        </mxCell>
        <mxCell id="9" value="GetUniAd" style="edgeStyle=none;verticalLabelPosition=top;verticalAlign=bottom" parent="1" edge="1">
          <mxGeometry x="220" y="92" width="100" height="100" as="geometry">
            <mxPoint x="210" y="179.5" as="sourcePoint" />
            <mxPoint x="340" y="179.5" as="targetPoint" />
          </mxGeometry>
        </mxCell>
        <mxCell id="15" value="SSPDA" style="shadow=1;fillColor=#A2C4C9;strokeColor=none" parent="1" vertex="1">
          <mxGeometry x="462.2839506172839" y="59.99999999999997" width="105" height="50" as="geometry" />
        </mxCell>
        <mxCell id="16" value="" style="edgeStyle=none;endArrow=none" parent="1" source="15" edge="1">
          <mxGeometry x="437.042824074074" y="270" width="100" height="100" as="geometry">
            <mxPoint x="514.542824074074" y="219.99999999999997" as="sourcePoint" />
            <mxPoint x="515" y="140" as="targetPoint" />
          </mxGeometry>
        </mxCell>
        <mxCell id="17" value="" style="fillColor=#CC4125;strokeColor=#660000" parent="1" vertex="1">
          <mxGeometry x="509.78" y="140" width="10" height="40" as="geometry" />
        </mxCell>
        <mxCell id="19" value="union_style_template" style="edgeStyle=elbowEdgeStyle;elbow=vertical;verticalLabelPosition=top;verticalAlign=bottom" parent="1" source="6" target="17" edge="1">
          <mxGeometry width="100" height="100" as="geometry">
            <mxPoint x="350" y="390" as="sourcePoint" />
            <mxPoint x="450" y="290" as="targetPoint" />
            <Array as="points">
              <mxPoint x="440" y="150" />
            </Array>
            <mxPoint as="offset" />
          </mxGeometry>
        </mxCell>
        <mxCell id="21" value="" style="fillColor=#CC4125;strokeColor=#660000" parent="1" vertex="1">
          <mxGeometry x="670" y="150" width="10" height="199.39" as="geometry" />
        </mxCell>
        <mxCell id="22" value="BigoDsp" style="shadow=1;fillColor=#A2C4C9;strokeColor=none" parent="1" vertex="1">
          <mxGeometry x="622.5" y="60" width="105" height="50" as="geometry" />
        </mxCell>
        <mxCell id="23" value="" style="edgeStyle=none;endArrow=none;dashed=1" parent="1" source="22" target="21" edge="1">
          <mxGeometry x="614.4878472222224" y="174.99999999999997" width="100" height="100" as="geometry">
            <mxPoint x="674.6527777777778" y="110" as="sourcePoint" />
            <mxPoint x="674.6527777777778" y="260" as="targetPoint" />
          </mxGeometry>
        </mxCell>
        <mxCell id="33" value="" style="edgeStyle=elbowEdgeStyle;elbow=horizontal;endArrow=none;dashed=1" parent="1" source="4" target="2" edge="1">
          <mxGeometry x="230.00000000000003" y="310" width="100" height="100" as="geometry">
            <mxPoint x="230.00000000000003" y="410" as="sourcePoint" />
            <mxPoint x="330" y="310" as="targetPoint" />
          </mxGeometry>
        </mxCell>
        <mxCell id="52" value="" style="edgeStyle=none;endArrow=none;dashed=1" parent="1" source="6" edge="1">
          <mxGeometry x="376.5711805555559" y="339.6971450617284" width="100" height="100" as="geometry">
            <mxPoint x="451.7361111111112" y="284.6971450617284" as="sourcePoint" />
            <mxPoint x="347.5" y="464.16666666666674" as="targetPoint" />
          </mxGeometry>
        </mxCell>
        <mxCell id="56" value="" style="edgeStyle=none;endArrow=none;dashed=1" parent="1" edge="1">
          <mxGeometry x="1204.0711805555559" y="380.08680555555554" width="100" height="100" as="geometry">
            <mxPoint x="1142.5" y="512.0833333333335" as="sourcePoint" />
            <mxPoint x="1142.5" y="530" as="targetPoint" />
          </mxGeometry>
        </mxCell>
        <mxCell id="7OJpoJK1-XusjQawDuEM-90" value="GetBigoAd   mutli_ads = 1" style="edgeStyle=none;verticalLabelPosition=top;verticalAlign=bottom;entryX=-0.3;entryY=0.326;entryDx=0;entryDy=0;entryPerimeter=0;" edge="1" parent="1" target="21">
          <mxGeometry x="220" y="92" width="100" height="100" as="geometry">
            <mxPoint x="352.5" y="214.5" as="sourcePoint" />
            <mxPoint x="482.5" y="214.5" as="targetPoint" />
          </mxGeometry>
        </mxCell>
        <mxCell id="7OJpoJK1-XusjQawDuEM-94" value="&amp;nbsp;bid&amp;nbsp; 竞价" style="html=1;align=left;spacingLeft=2;endArrow=block;rounded=0;edgeStyle=orthogonalEdgeStyle;curved=0;rounded=0;" edge="1" parent="1">
          <mxGeometry relative="1" as="geometry">
            <mxPoint x="352.5" y="265" as="sourcePoint" />
            <Array as="points">
              <mxPoint x="382.5" y="295" />
            </Array>
            <mxPoint x="357.5" y="295" as="targetPoint" />
          </mxGeometry>
        </mxCell>
        <mxCell id="7OJpoJK1-XusjQawDuEM-95" value="&amp;nbsp;Response 构造" style="html=1;align=left;spacingLeft=2;endArrow=block;rounded=0;edgeStyle=orthogonalEdgeStyle;curved=0;rounded=0;" edge="1" parent="1">
          <mxGeometry relative="1" as="geometry">
            <mxPoint x="353.5" y="326" as="sourcePoint" />
            <Array as="points">
              <mxPoint x="383.5" y="356" />
            </Array>
            <mxPoint x="358.5" y="356" as="targetPoint" />
          </mxGeometry>
        </mxCell>
        <mxCell id="7OJpoJK1-XusjQawDuEM-98" value="AdUniRes" style="html=1;verticalAlign=bottom;endArrow=block;edgeStyle=elbowEdgeStyle;elbow=vertical;curved=0;rounded=0;" edge="1" parent="1">
          <mxGeometry width="80" relative="1" as="geometry">
            <mxPoint x="340" y="418" as="sourcePoint" />
            <mxPoint x="210" y="418" as="targetPoint" />
          </mxGeometry>
        </mxCell>
        <mxCell id="7OJpoJK1-XusjQawDuEM-100" value="WinNotice" style="edgeStyle=none;verticalLabelPosition=top;verticalAlign=bottom;entryX=-0.3;entryY=0.326;entryDx=0;entryDy=0;entryPerimeter=0;" edge="1" parent="1">
          <mxGeometry x="220" y="92" width="100" height="100" as="geometry">
            <mxPoint x="353.5" y="314.5" as="sourcePoint" />
            <mxPoint x="668" y="315" as="targetPoint" />
          </mxGeometry>
        </mxCell>
        <mxCell id="7OJpoJK1-XusjQawDuEM-102" value="AdRes.&amp;nbsp;&lt;b style=&quot;border-color: var(--border-color);&quot;&gt;datas&lt;/b&gt;" style="html=1;verticalAlign=bottom;endArrow=block;edgeStyle=elbowEdgeStyle;elbow=horizontal;curved=0;rounded=0;exitX=0;exitY=0.431;exitDx=0;exitDy=0;exitPerimeter=0;" edge="1" parent="1" source="21">
          <mxGeometry width="80" relative="1" as="geometry">
            <mxPoint x="497" y="238" as="sourcePoint" />
            <mxPoint x="354" y="236" as="targetPoint" />
          </mxGeometry>
        </mxCell>
        <mxCell id="7OJpoJK1-XusjQawDuEM-105" value="style_config" style="html=1;verticalAlign=bottom;endArrow=block;edgeStyle=elbowEdgeStyle;elbow=vertical;curved=0;rounded=0;" edge="1" parent="1">
          <mxGeometry width="80" relative="1" as="geometry">
            <mxPoint x="508" y="171" as="sourcePoint" />
            <mxPoint x="352.5" y="171" as="targetPoint" />
          </mxGeometry>
        </mxCell>
        <mxCell id="7OJpoJK1-XusjQawDuEM-106" value="bigo_ad.bigo_uni_adx_dispatch" style="edgeStyle=none;verticalLabelPosition=top;verticalAlign=bottom;entryX=0;entryY=0.25;entryDx=0;entryDy=0;" edge="1" parent="1" target="7OJpoJK1-XusjQawDuEM-109">
          <mxGeometry x="220" y="92" width="100" height="100" as="geometry">
            <mxPoint x="352.5" y="398" as="sourcePoint" />
            <mxPoint x="667" y="398.5" as="targetPoint" />
          </mxGeometry>
        </mxCell>
        <mxCell id="7OJpoJK1-XusjQawDuEM-107" value="HIVE" style="shadow=1;fillColor=#A2C4C9;strokeColor=none" vertex="1" parent="1">
          <mxGeometry x="787" y="60" width="105" height="50" as="geometry" />
        </mxCell>
        <mxCell id="7OJpoJK1-XusjQawDuEM-109" value="" style="fillColor=#CC4125;strokeColor=#660000" vertex="1" parent="1">
          <mxGeometry x="834.5" y="389" width="10" height="40" as="geometry" />
        </mxCell>
        <mxCell id="7OJpoJK1-XusjQawDuEM-110" value="" style="edgeStyle=none;endArrow=none;dashed=1;exitX=0.5;exitY=1;exitDx=0;exitDy=0;" edge="1" parent="1" source="7OJpoJK1-XusjQawDuEM-107">
          <mxGeometry x="614.4878472222224" y="174.99999999999997" width="100" height="100" as="geometry">
            <mxPoint x="839" y="343" as="sourcePoint" />
            <mxPoint x="839" y="383" as="targetPoint" />
          </mxGeometry>
        </mxCell>
      </root>
    </mxGraphModel>
  </diagram>
</mxfile>
